<svg width="176" height="116" viewBox="0 0 176 116" fill="none" xmlns="http://www.w3.org/2000/svg">
<rect x="2" y="2" width="172" height="112" rx="28" fill="#C1A8FF" stroke="#38168C" stroke-width="4"/>
<path d="M112.667 57.9998V88.8332H63.3337V57.9998M88.0003 88.8332V42.5832M88.0003 42.5832H74.1253C72.0809 42.5832 70.1203 41.771 68.6747 40.3255C67.2291 38.8799 66.417 36.9192 66.417 34.8748C66.417 32.8305 67.2291 30.8698 68.6747 29.4242C70.1203 27.9786 72.0809 27.1665 74.1253 27.1665C84.917 27.1665 88.0003 42.5832 88.0003 42.5832ZM88.0003 42.5832H101.875C103.92 42.5832 105.88 41.771 107.326 40.3255C108.772 38.8799 109.584 36.9192 109.584 34.8748C109.584 32.8305 108.772 30.8698 107.326 29.4242C105.88 27.9786 103.92 27.1665 101.875 27.1665C91.0837 27.1665 88.0003 42.5832 88.0003 42.5832ZM57.167 42.5832H118.834V57.9998H57.167V42.5832Z" stroke="#5E2ED5" stroke-width="6" stroke-linecap="round" stroke-linejoin="round"/>
</svg>
