<svg width="263" height="116" viewBox="0 0 263 116" fill="none" xmlns="http://www.w3.org/2000/svg">
<rect x="2" y="2" width="259" height="112" rx="28" fill="#C8FF45" stroke="black" stroke-width="4"/>
<path d="M41.3387 74V40H46.8387C49.472 43.4333 51.972 47.0667 54.3387 50.9C56.7053 54.7 58.8553 58.6167 60.7887 62.65L60.3387 52.5V40H66.0887V74H60.5887C58.4553 69.8 56.2387 65.5833 53.9387 61.35C51.672 57.0833 49.2553 53.0667 46.6887 49.3L47.0887 61V74H41.3387ZM95.1695 68.25V74H75.4695V40H94.6695V45.75H81.4695V53.9H93.1695V59.65H81.4695V68.25H95.1695ZM118.476 74L111.376 61.55L104.626 74H98.3262L108.276 56.35L98.8762 40H105.676L112.226 51.4L118.376 40H124.676L115.326 56.65L125.276 74H118.476ZM126.693 45.75V40H151.693V45.75H142.193V74H136.193V45.75H126.693Z" fill="black"/>
<g filter="url(#filter0_d_5_268)">
<mask id="path-3-inside-1_5_268" fill="white">
<path d="M198.661 35.7363C198.661 32.348 202.61 30.4943 205.217 32.6592L230.81 53.916C232.735 55.5154 232.735 58.4699 230.81 60.0693L205.217 81.3262C202.61 83.4911 198.661 81.6373 198.661 78.249V68.7344H185C182.239 68.7342 180 66.4956 180 63.7344V51.0898C180 48.3286 182.239 46.09 185 46.0898H198.661V35.7363Z"/>
</mask>
<path d="M198.661 35.7363C198.661 32.348 202.61 30.4943 205.217 32.6592L230.81 53.916C232.735 55.5154 232.735 58.4699 230.81 60.0693L205.217 81.3262C202.61 83.4911 198.661 81.6373 198.661 78.249V68.7344H185C182.239 68.7342 180 66.4956 180 63.7344V51.0898C180 48.3286 182.239 46.09 185 46.0898H198.661V35.7363Z" fill="#AFDB45"/>
<path d="M198.661 35.7363H195.661H198.661ZM205.217 32.6592L207.134 30.3514L207.134 30.3514L205.217 32.6592ZM230.81 53.916L232.727 51.6085L232.726 51.6082L230.81 53.916ZM230.81 60.0693L232.726 62.3771L232.727 62.3768L230.81 60.0693ZM205.217 81.3262L207.134 83.634L207.134 83.634L205.217 81.3262ZM198.661 78.249H201.661H198.661ZM198.661 68.7344H201.661V65.7344H198.661V68.7344ZM185 68.7344L185 71.7344H185V68.7344ZM180 63.7344H177V63.7345L180 63.7344ZM180 51.0898L177 51.0897V51.0898H180ZM185 46.0898V43.0898H185L185 46.0898ZM198.661 46.0898V49.0898H201.661V46.0898H198.661ZM198.661 35.7363H201.661C201.661 34.8891 202.649 34.4259 203.3 34.967L205.217 32.6592L207.134 30.3514C202.572 26.5627 195.661 29.807 195.661 35.7363H198.661ZM205.217 32.6592L203.3 34.967L228.893 56.2238L230.81 53.916L232.726 51.6082L207.134 30.3514L205.217 32.6592ZM230.81 53.916L228.892 56.2236C229.374 56.6233 229.374 57.3619 228.892 57.7618L230.81 60.0693L232.727 62.3768C236.096 59.5779 236.096 54.4075 232.727 51.6085L230.81 53.916ZM230.81 60.0693L228.893 57.7615L203.3 79.0184L205.217 81.3262L207.134 83.634L232.726 62.3771L230.81 60.0693ZM205.217 81.3262L203.3 79.0184C202.649 79.5595 201.661 79.0963 201.661 78.249H198.661H195.661C195.661 84.1784 202.572 87.4226 207.134 83.634L205.217 81.3262ZM198.661 78.249H201.661V68.7344H198.661H195.661V78.249H198.661ZM198.661 68.7344V65.7344H185V68.7344V71.7344H198.661V68.7344ZM185 68.7344L185 65.7344C183.896 65.7343 183 64.8387 183 63.7342L180 63.7344L177 63.7345C177 68.1525 180.582 71.7341 185 71.7344L185 68.7344ZM180 63.7344H183V51.0898H180H177V63.7344H180ZM180 51.0898L183 51.09C183 49.9855 183.896 49.0899 185 49.0898L185 46.0898L185 43.0898C180.582 43.0901 177 46.6717 177 51.0897L180 51.0898ZM185 46.0898V49.0898H198.661V46.0898V43.0898H185V46.0898ZM198.661 46.0898H201.661V35.7363H198.661H195.661V46.0898H198.661Z" fill="black" mask="url(#path-3-inside-1_5_268)"/>
</g>
<defs>
<filter id="filter0_d_5_268" x="176" y="31.7285" width="60.2529" height="58.5283" filterUnits="userSpaceOnUse" color-interpolation-filters="sRGB">
<feFlood flood-opacity="0" result="BackgroundImageFix"/>
<feColorMatrix in="SourceAlpha" type="matrix" values="0 0 0 0 0 0 0 0 0 0 0 0 0 0 0 0 0 0 127 0" result="hardAlpha"/>
<feOffset dy="4"/>
<feGaussianBlur stdDeviation="2"/>
<feComposite in2="hardAlpha" operator="out"/>
<feColorMatrix type="matrix" values="0 0 0 0 0 0 0 0 0 0 0 0 0 0 0 0 0 0 0.25 0"/>
<feBlend mode="normal" in2="BackgroundImageFix" result="effect1_dropShadow_5_268"/>
<feBlend mode="normal" in="SourceGraphic" in2="effect1_dropShadow_5_268" result="shape"/>
</filter>
</defs>
</svg>
