<svg width="242" height="91" viewBox="0 0 242 91" fill="none" xmlns="http://www.w3.org/2000/svg">
<path d="M0.0875001 87.952V2.448C0.0875001 1.168 0.8555 0.399994 2.1355 0.399994H32.8555C44.8875 0.399994 51.2875 6.8 51.2875 18.832V43.92C51.2875 55.824 44.8875 62.224 32.8555 62.352L16.7275 62.48V88.08C16.7275 89.36 16.0875 90.128 14.6795 90.128L2.1355 90C0.8555 90 0.0875001 89.232 0.0875001 87.952ZM16.7275 45.968L29.5275 45.84C32.9835 45.84 34.6475 43.92 34.6475 40.72V22.032C34.6475 18.704 32.9835 16.912 29.5275 16.912L16.7275 17.04V45.968ZM115.16 2.448V15.248C115.16 16.528 114.648 17.424 113.112 17.424H81.4955V37.136H105.56C106.84 37.136 107.608 37.904 107.608 39.312V51.984C107.608 53.392 106.84 54.16 105.56 54.16H81.4955V73.104H113.112C114.648 73.104 115.16 73.744 115.16 75.152V87.952C115.16 89.232 114.648 90 113.112 90H66.0075C64.8555 90 64.0875 89.232 64.0875 87.952V2.448C64.0875 1.168 64.8555 0.399994 66.0075 0.399994H113.112C114.648 0.399994 115.16 1.168 115.16 2.448ZM127.963 87.952V2.448C127.963 1.168 128.731 0.399994 130.01 0.399994H160.731C172.763 0.399994 179.163 6.8 179.163 18.832V43.92C179.163 55.824 172.763 62.224 160.731 62.352L144.603 62.48V88.08C144.603 89.36 143.963 90.128 142.555 90.128L130.01 90C128.731 90 127.963 89.232 127.963 87.952ZM144.603 45.968L157.403 45.84C160.859 45.84 162.523 43.92 162.523 40.72V22.032C162.523 18.704 160.859 16.912 157.403 16.912L144.603 17.04V45.968ZM190.713 71.568V18.832C190.713 6.8 197.113 0.399994 209.145 0.399994H223.481C235.513 0.399994 241.913 6.8 241.913 18.832V71.568C241.913 83.6 235.513 90 223.481 90H209.145C197.113 90 190.713 83.6 190.713 71.568ZM212.473 73.488H220.665C223.993 73.488 225.785 71.824 225.785 68.368V22.032C225.785 18.704 223.993 16.912 220.665 16.912H212.473C209.145 16.912 207.353 18.704 207.353 22.032V68.368C207.353 71.824 209.145 73.488 212.473 73.488Z" fill="white"/>
</svg>
